Coordinates
nRows=10
nColumns=24

# SIMM Motion File Header:
name Coordinates
datacolumns 24
datarows 10
otherdata 1
range 0.18833000000000000000 0.19733000000000001000
endheader
time	pelvis_tx	pelvis_ty	pelvis_tz	pelvis_tilt	pelvis_list	pelvis_rotation	hip_flexion_r	hip_adduction_r	hip_rotation_r	knee_angle_r	ankle_angle_r	subtalar_angle_r	mtp_angle_r	hip_flexion_l	hip_adduction_l	hip_rotation_l	knee_angle_l	ankle_angle_l	subtalar_angle_l	mtp_angle_l	lumbar_extension	lumbar_bending	lumbar_rotation
      0.18833000000000000000	      0.65108364516932282000	      0.78576507805549700000	     -0.23600915411395307000	     -4.86394831676825050000	     -6.02730397864256860000	      3.46502322724090070000	     20.84278645971146600000	     10.64843686681790300000	      1.05295865907793070000	    -18.52716674661123300000	      3.17988670948504740000	      0.00000000000000461467	     -0.00000000000001031026	     11.06930599770781900000	     -9.30686187311374090000	     -2.76689839247117140000	    -59.56102816924141800000	    -24.64998761625823000000	     -0.00000000000000119716	     -0.00000000000000070175	      3.92570428607694490000	      6.39282145547304910000	     -7.56855053151306480000
      0.18933000000000000000	      0.65226959304964260000	      0.78605455503120902000	     -0.23589307032388432000	     -4.87628878351658820000	     -6.00938733383705250000	      3.44463208503228380000	     20.70989480063840200000	     10.64272011803598700000	      1.02585606582193760000	    -18.44597386826469100000	      3.22555741524864990000	      0.00000000000000469763	     -0.00000000000001059170	     11.33205080759520700000	     -9.26229688714389180000	     -2.68610583891201980000	    -59.75162059573229800000	    -24.31532348877426500000	     -0.00000000000000123133	     -0.00000000000000070834	      3.90461446749878330000	      6.35728874246474530000	     -7.48731448590346020000
      0.19033000000000000000	      0.65345650729095506000	      0.78634454457493108000	     -0.23577112963427468000	     -4.88845672363917850000	     -5.99214745533912470000	      3.42178627489792970000	     20.57691604930549900000	     10.63910665037157000000	      0.99845759256485256000	    -18.36424942472903500000	      3.25760469811189910000	      0.00000000000000479025	     -0.00000000000001087504	     11.59190426733219100000	     -9.21967929332516970000	     -2.60695733598321770000	    -59.93299105726998700000	    -24.00774123426065300000	     -0.00000000000000125523	     -0.00000000000000075191	      3.88347751284334650000	      6.32183051016531920000	     -7.40327327249597730000
      0.19133000000000000000	      0.65464434830590390000	      0.78663502071435543000	     -0.23564357336901415000	     -4.90046203423743880000	     -5.97555508882782860000	      3.39658833341127100000	     20.44385626550299800000	     10.63750802793047100000	      0.97077523149256439000	    -18.28201484291222900000	      3.27661849983704910000	      0.00000000000000489233	     -0.00000000000001116059	     11.84898867863012800000	     -9.17892710650753860000	     -2.52938215548708460000	    -60.10551870802390800000	    -23.72612237264847900000	     -0.00000000000000126922	     -0.00000000000000083120	      3.86229906185600000000	      6.28644105575849730000	     -7.31654415033066650000
      0.19233000000000000000	      0.65583220768584061000	      0.78692548220293579000	     -0.23551591298851229000	     -4.91247642738370600000	     -5.95896366928200470000	      3.37135350295698140000	     20.31080693594809700000	     10.63593400998248700000	      0.94308729262378765000	    -18.19977559087498500000	      3.29556274291079410000	      0.00000000000000499463	     -0.00000000000001144657	     12.10603295996932400000	     -9.13819501365525260000	     -2.45182369105519540000	    -60.27787994912403500000	    -23.44489549454434000000	     -0.00000000000000128314	     -0.00000000000000091090	      3.84113572496609250000	      6.25103487019578270000	     -7.22977297748381800000
      0.19333000000000000000	      0.65702221183245213000	      0.78721423268348034000	     -0.23537609344394433000	     -4.92555153162228440000	     -5.94248284169564660000	      3.34181057117222350000	     20.17897851228739700000	     10.63723344326757400000	      0.91474794727722175000	    -18.11699092420130300000	      3.30638353504763760000	      0.00000000000000512236	     -0.00000000000001178411	     12.35839063878881000000	     -9.09980960720838180000	     -2.37621742271967750000	    -60.43080693394234300000	    -23.20944665743619200000	     -0.00000000000000128949	     -0.00000000000000103919	      3.82173749746977980000	      6.21367472604889310000	     -7.13809088929527480000
      0.19433000000000000000	      0.65821221597906365000	      0.78750298316402478000	     -0.23523627389937637000	     -4.93862663586086280000	     -5.92600201410928840000	      3.31226763938746550000	     20.04715008862669700000	     10.63853287655265900000	      0.88640860193065596000	    -18.03420625752761800000	      3.31720432718448110000	      0.00000000000000525009	     -0.00000000000001212165	     12.61074831760829600000	     -9.06142420076151110000	     -2.30061115438415920000	    -60.58373391876065700000	    -22.97399782032804400000	     -0.00000000000000129585	     -0.00000000000000116748	      3.80233926997346710000	      6.17631458190200440000	     -7.04640880110673160000
      0.19533000000000000000	      0.65940332301466142000	      0.78778986960283981000	     -0.23509140579636950000	     -4.95247129730249470000	     -5.90878804428893820000	      3.28140647406091630000	     19.91607211994335100000	     10.64018927108452700000	      0.85783555993422167000	    -17.95152917443844100000	      3.33700814620788270000	      0.00000000000000539398	     -0.00000000000001248521	     12.86117988498120300000	     -9.02299678554085820000	     -2.22508432392280440000	    -60.72838492449751200000	    -22.74693192887004000000	     -0.00000000000000130283	     -0.00000000000000130574	      3.78417945096207120000	      6.13691183985979190000	     -6.95317216634667190000
      0.19633000000000000000	      0.66059549611048751000	      0.78807495424584673000	     -0.23494165772137043000	     -4.96705981813344180000	     -5.89086541404374310000	      3.24927109494820380000	     19.78571954630399400000	     10.64219070686087300000	      0.82903662511712839000	    -17.86895608239652900000	      3.36549502201708470000	      0.00000000000000555348	     -0.00000000000001287392	     13.10974965952217500000	     -8.98452876434486390000	     -2.14963427866770740000	    -60.86503631081545500000	    -22.52796905146640300000	     -0.00000000000000131043	     -0.00000000000000145364	      3.76721668627705640000	      6.09553470836738320000	     -6.85843289596867130000
      0.19733000000000001000	      0.66178768703644519000	      0.78836000713935672000	     -0.23479184792153238000	     -4.98165633108020780000	     -5.87292618979225800000	      3.21712613954042490000	     19.65537173540593900000	     10.64418846712180100000	      0.80023483129180228000	    -17.78638304960796300000	      3.39420966612357770000	      0.00000000000000571311	     -0.00000000000001326255	     13.35828849647203900000	     -8.94605017999055360000	     -2.07417603750947200000	    -61.00158260026582000000	    -22.30894147452748300000	     -0.00000000000000131798	     -0.00000000000000160163	      3.75026929722328180000	      6.05411974513932360000	     -6.76368083013934380000
